<svg width="49" height="48" viewBox="0 0 49 48" fill="none" xmlns="http://www.w3.org/2000/svg">
<rect x="0.5" width="48" height="48" rx="24" fill="#58C27D"/>
<path d="M15.5 23C15.3022 23 15.1089 23.0586 14.9444 23.1685C14.78 23.2784 14.6518 23.4346 14.5761 23.6173C14.5004 23.8 14.4806 24.0011 14.5192 24.1951C14.5578 24.3891 14.653 24.5673 14.7929 24.7071C14.9327 24.847 15.1109 24.9422 15.3049 24.9808C15.4989 25.0194 15.7 24.9996 15.8827 24.9239C16.0654 24.8482 16.2216 24.72 16.3315 24.5556C16.4414 24.3911 16.5 24.1978 16.5 24C16.5 23.7348 16.3946 23.4804 16.2071 23.2929C16.0196 23.1054 15.7652 23 15.5 23ZM17.43 29.66C17.2896 29.7996 17.1937 29.9778 17.1547 30.1719C17.1156 30.3661 17.135 30.5674 17.2106 30.7505C17.2861 30.9336 17.4142 31.0901 17.5788 31.2003C17.7434 31.3104 17.937 31.3692 18.135 31.3692C18.333 31.3692 18.5266 31.3104 18.6912 31.2003C18.8558 31.0901 18.9839 30.9336 19.0594 30.7505C19.135 30.5674 19.1544 30.3661 19.1153 30.1719C19.0763 29.9778 18.9804 29.7996 18.84 29.66C18.6526 29.4737 18.3992 29.3692 18.135 29.3692C17.8708 29.3692 17.6174 29.4737 17.43 29.66ZM18.84 18.34C18.9804 18.2004 19.0763 18.0222 19.1153 17.8281C19.1544 17.6339 19.135 17.4326 19.0594 17.2495C18.9839 17.0664 18.8558 16.9099 18.6912 16.7997C18.5266 16.6896 18.333 16.6308 18.135 16.6308C17.937 16.6308 17.7434 16.6896 17.5788 16.7997C17.4142 16.9099 17.2861 17.0664 17.2106 17.2495C17.135 17.4326 17.1156 17.6339 17.1547 17.8281C17.1937 18.0222 17.2896 18.2004 17.43 18.34C17.6174 18.5263 17.8708 18.6308 18.135 18.6308C18.3992 18.6308 18.6526 18.5263 18.84 18.34ZM24.5 16C24.6978 16 24.8911 15.9414 25.0556 15.8315C25.22 15.7216 25.3482 15.5654 25.4239 15.3827C25.4996 15.2 25.5194 14.9989 25.4808 14.8049C25.4422 14.6109 25.347 14.4327 25.2071 14.2929C25.0673 14.153 24.8891 14.0578 24.6951 14.0192C24.5011 13.9806 24.3 14.0004 24.1173 14.0761C23.9346 14.1518 23.7784 14.28 23.6685 14.4444C23.5587 14.6089 23.5 14.8022 23.5 15C23.5 15.2652 23.6054 15.5196 23.7929 15.7071C23.9804 15.8946 24.2348 16 24.5 16ZM30.16 29.66C30.0196 29.7996 29.9237 29.9778 29.8847 30.1719C29.8456 30.3661 29.865 30.5674 29.9406 30.7505C30.0161 30.9336 30.1442 31.0901 30.3088 31.2003C30.4734 31.3104 30.667 31.3692 30.865 31.3692C31.063 31.3692 31.2566 31.3104 31.4212 31.2003C31.5858 31.0901 31.7139 30.9336 31.7894 30.7505C31.865 30.5674 31.8844 30.3661 31.8453 30.1719C31.8063 29.9778 31.7104 29.7996 31.57 29.66C31.3826 29.4737 31.1292 29.3692 30.865 29.3692C30.6008 29.3692 30.3474 29.4737 30.16 29.66ZM33.5 23C33.3022 23 33.1089 23.0586 32.9444 23.1685C32.78 23.2784 32.6518 23.4346 32.5761 23.6173C32.5004 23.8 32.4806 24.0011 32.5192 24.1951C32.5578 24.3891 32.653 24.5673 32.7929 24.7071C32.9327 24.847 33.1109 24.9422 33.3049 24.9808C33.4989 25.0194 33.7 24.9996 33.8827 24.9239C34.0654 24.8482 34.2216 24.72 34.3315 24.5556C34.4414 24.3911 34.5 24.1978 34.5 24C34.5 23.7348 34.3946 23.4804 34.2071 23.2929C34.0196 23.1054 33.7652 23 33.5 23ZM30.16 16.93C30.0196 17.0696 29.9237 17.2478 29.8847 17.4419C29.8456 17.6361 29.865 17.8374 29.9406 18.0205C30.0161 18.2036 30.1442 18.3601 30.3088 18.4703C30.4734 18.5804 30.667 18.6392 30.865 18.6392C31.063 18.6392 31.2566 18.5804 31.4212 18.4703C31.5858 18.3601 31.7139 18.2036 31.7894 18.0205C31.865 17.8374 31.8844 17.6361 31.8453 17.4419C31.8063 17.2478 31.7104 17.0696 31.57 16.93C31.3826 16.7437 31.1292 16.6392 30.865 16.6392C30.6008 16.6392 30.3474 16.7437 30.16 16.93ZM24.5 32C24.3022 32 24.1089 32.0586 23.9444 32.1685C23.78 32.2784 23.6518 32.4346 23.5761 32.6173C23.5004 32.8 23.4806 33.0011 23.5192 33.1951C23.5578 33.3891 23.653 33.5673 23.7929 33.7071C23.9327 33.847 24.1109 33.9422 24.3049 33.9808C24.4989 34.0194 24.7 33.9996 24.8827 33.9239C25.0654 33.8482 25.2216 33.72 25.3315 33.5556C25.4414 33.3911 25.5 33.1978 25.5 33C25.5 32.7348 25.3946 32.4804 25.2071 32.2929C25.0196 32.1054 24.7652 32 24.5 32ZM24.5 18C23.3133 18 22.1533 18.3519 21.1666 19.0112C20.1799 19.6705 19.4108 20.6075 18.9567 21.7039C18.5026 22.8003 18.3838 24.0067 18.6153 25.1705C18.8468 26.3344 19.4182 27.4035 20.2574 28.2426C21.0965 29.0818 22.1656 29.6532 23.3295 29.8847C24.4933 30.1162 25.6997 29.9974 26.7961 29.5433C27.8925 29.0892 28.8295 28.3201 29.4888 27.3334C30.1481 26.3467 30.5 25.1867 30.5 24C30.5 22.4087 29.8679 20.8826 28.7426 19.7574C27.6174 18.6321 26.0913 18 24.5 18ZM24.5 28C23.7089 28 22.9355 27.7654 22.2777 27.3259C21.6199 26.8864 21.1072 26.2616 20.8045 25.5307C20.5017 24.7998 20.4225 23.9956 20.5769 23.2196C20.7312 22.4437 21.1122 21.731 21.6716 21.1716C22.231 20.6122 22.9437 20.2312 23.7196 20.0769C24.4956 19.9225 25.2998 20.0017 26.0307 20.3045C26.7616 20.6072 27.3864 21.1199 27.8259 21.7777C28.2654 22.4355 28.5 23.2089 28.5 24C28.5 25.0609 28.0786 26.0783 27.3284 26.8284C26.5783 27.5786 25.5609 28 24.5 28Z" fill="white"/>
</svg>
