<svg width="19" height="18" viewBox="0 0 19 18" fill="none" xmlns="http://www.w3.org/2000/svg">
<path d="M15.3933 0.5212L2.23785 2.06378C1.71926 2.12555 1.23238 2.34578 0.843594 2.69445C0.454805 3.04312 0.183029 3.50325 0.0653201 4.01211C-0.052389 4.52097 -0.0103028 5.0538 0.185841 5.53795C0.381984 6.02209 0.72264 6.434 1.16136 6.71751L5.35231 9.40448C5.45111 9.4711 5.53565 9.55673 5.60101 9.65638C5.66636 9.75603 5.71122 9.86769 5.73295 9.98485L6.52756 14.8994C6.59572 15.317 6.76714 15.7109 7.02624 16.0455C7.28534 16.38 7.6239 16.6445 8.01117 16.8149C8.39843 16.9853 8.82212 17.0563 9.24372 17.0213C9.66531 16.9863 10.0715 16.8465 10.4252 16.6146C10.7544 16.394 11.03 16.1026 11.2319 15.7616L17.8885 4.31023C18.1239 3.90296 18.2415 3.43825 18.2282 2.96796C18.2149 2.49766 18.0712 2.04028 17.8132 1.64683C17.5551 1.25339 17.1929 0.939356 16.7668 0.739776C16.3408 0.540196 15.8677 0.462916 15.4003 0.51656L15.3933 0.5212ZM16.4207 3.46098L9.76418 14.9124C9.67508 15.0602 9.54292 15.1772 9.38542 15.2477C9.22793 15.3182 9.05262 15.3389 8.88302 15.3069C8.71342 15.275 8.55762 15.1919 8.43652 15.0689C8.31542 14.9459 8.23481 14.7889 8.20549 14.6188L7.40381 9.7089C7.39242 9.64379 7.37722 9.5794 7.35829 9.51606L12.2335 6.31862C12.4211 6.19554 12.5522 6.00293 12.5978 5.78317C12.6435 5.5634 12.5999 5.33448 12.4768 5.14677C12.3537 4.95906 12.1611 4.82793 11.9413 4.78222C11.7216 4.73652 11.4927 4.77999 11.305 4.90307L6.42989 8.10052C6.37934 8.05792 6.32633 8.01833 6.27116 7.98193L2.08729 5.29032C1.94296 5.19566 1.831 5.05913 1.76644 4.89905C1.70188 4.73897 1.68779 4.56299 1.72606 4.3947C1.76434 4.22641 1.85315 4.07386 1.98058 3.95751C2.10802 3.84115 2.26799 3.76656 2.43904 3.74372L15.5945 2.20114C15.7493 2.18452 15.9058 2.21096 16.0466 2.27756C16.1874 2.34416 16.3071 2.44832 16.3925 2.57858C16.478 2.70885 16.5258 2.86015 16.5308 3.01584C16.5358 3.17153 16.4977 3.32556 16.4207 3.46098Z" fill="white"/>
</svg>
